<svg xmlns="http://www.w3.org/2000/svg" viewBox="0 0 32 32">
	<style>
		rect {
			fill: black;
		}
		path {
			fill: white;
		}
	</style>
	<rect x="0" y="0" width="32" height="32" />
	<path d="M14,4H2v-2h12v2ZM6,4h-2v8h2V4ZM14,4h-2v8h2V4ZM14,12H2v2h12v-2Z"/>
	<path d="M30,4h-12v-2h12v2ZM28,6h2v-2h-2v2ZM22,4h-2v8h2v-8ZM28,6h-4v2h4v-2ZM28,12h2v-4h-2v4ZM30,12h-12v2h12v-2Z"/>
	<path d="M12,20H2v-2h10v2ZM12,24h2v-4h-2v4ZM6,20h-2v10h2v-10ZM14,24H6v2h8v-2ZM10,30h2v-4h-2v4Z"/>
	<path d="M28,20h-10v-2h10v2ZM28,24h2v-4h-2v4ZM22,20h-2v10h2v-10ZM22,26h6v-2h-6v2Z"/>
</svg>